<?xml version="1.0" encoding="utf-8"?>
<!-- Generator: Adobe Illustrator 26.3.1, SVG Export Plug-In . SVG Version: 6.00 Build 0)  -->
<svg version="1.1" id="Layer_1" xmlns="http://www.w3.org/2000/svg" xmlns:xlink="http://www.w3.org/1999/xlink" x="0px" y="0px"
	 viewBox="0 0 1000 1000" style="enable-background:new 0 0 1000 1000;" xml:space="preserve">
<style type="text/css">
	.st0{fill:url(#SVGID_1_);}
	.st1{fill:#231F20;}
</style>
<linearGradient id="SVGID_1_" gradientUnits="userSpaceOnUse" x1="-1093.6412" y1="776.4817" x2="-81.0313" y2="776.4817" gradientTransform="matrix(1.1031 1.1031 1.0253 -1.0253 -1025.8605 1028.3805)">
	<stop  offset="0" style="stop-color:#E7E7E7"/>
	<stop  offset="0.62" style="stop-color:#ADEE88"/>
	<stop  offset="1" style="stop-color:#8DF253"/>
</linearGradient>
<polygon class="st0" points="-924.2,-1486 176.1,-385.6 -847.6,638.1 -1948,-462.3 "/>
<path class="st1" d="M199.9,250.6c0.7-7.4,28.7-10.6,42.6-12.1c12.6-1.4,33.6-3.6,59.5,2.5c12.3,2.9,21.6,6.6,29.2,9.6
	c13.4,5.4,24.5,11.2,37.3,18c9.4,5,13.4,7.3,23.6,12.4c0,0,20.9,10.3,28.7,9.6c0.2,0,1.8-0.2,2,0.3c0.1,0.5-1.4,1.1-3.2,2.6
	c-1.2,0.9-1.5,1.5-3.4,3.5c-2,2.3-2.6,2.8-4.6,5c-38,41.3-50.6,65.5-50.6,65.5c-1.5,3-2.5,4.9-4.2,8.7c-17.3,36.9-16,50-15.2,54.7
	c0.7,4.1,2.3,10.6,3.8,10.5c1.5-0.1,2.3-7.4,2.5-8.9c1.9-16.8,14.4-38.2,24.6-55.8c7.2-12.4,22.1-35.9,46.9-60.7
	c23.6-23.6,45-37.3,62.8-48.5c27.7-17.5,50.5-27.4,64.8-33.5c23.6-10.1,56.3-24,100.9-31c33.6-5.3,53.9-3.6,61.2-2.9
	c28.5,2.9,46,10.9,53.6,14.7c12.7,6.4,22.7,11.7,29.9,23.2c9.8,15.6,7.9,32.5,6.9,40.9c-2.3,20.2-11.2,33.5-27.2,57.2
	c-14.5,21.5-21.8,32.2-34.2,42c-17.2,13.6-38,22-36.6,33.7c0.2,1.3,0.5,2.1,1.1,3.6c1.5,3.5,11.3,27.2,14.7,46.7
	c3,17.4,0.5,28.5-0.5,32.2c-2,7.7-3,11.6-6,14.3c-18,16.2-89-22.5-85.3-42.2c0.2-1.1,0.4-0.6,1.8-4c5.5-13.1,6.9-29.3,7.2-32.6
	c0-0.6,0.1-1.7,0.7-2.9c2-4.6,7.9-6.1,10.5-6.9c6.9-2.1,12.3-7.6,18.5-11.2c5.9-3.4,17.6-11.2,40.9-33.5
	c20.2-19.4,34.6-33.1,50.9-54.7c16.5-21.7,38.1-55.6,32.8-60.3c-1-0.9-2.7-0.5-3.6-0.2c-18,4.5-26,6-30.1,6.7
	c-0.6,0.1-2.4,0.3-4.8,0.8c-2.1,0.5-3.6,1-6,1.8c-6.1,2.1-6.8,2.3-7.8,2.7c-4.8,1.7-19.7,8.3-39.3,18.5
	c-20.1,10.4-34.8,21.8-44.7,30.6c-16.4,14.6-30.5,27.5-35.7,48.1c-1.8,7-2.1,13.1-2.6,21.8c-1.1,20,1.9,26.7,1.5,40.7
	c-0.5,17.3-5.7,30.1-9.6,39.5c-5.2,12.8-13.7,23.9-30.8,46c0,0-8.9,11.6-32,28c-1.6,1.1-5,3.4-8.1,2.3c-1.8-0.6-2.7-2.1-3.1-2.8
	c-8.5-13.4-8.7-11-11.6-17.7c-9.7-22.6-10-43.5-10-43.5c-0.1-8.4-0.1-32.3,13.9-54.6c19-30.2,51.9-39.1,50.2-42.8
	c-1.2-2.5-16.6,1.3-28.9,7.2c-4.2,2-20.4,10.2-33.8,28.5c-5.2,7.1-15.5,21.1-17.1,40.5c-1.5,17.7,5.3,25.8-0.9,34
	c-2.2,2.9-6.3,6.4-25.4,8.6c-25.2,3-31-1.5-46.2,0.6c-5.1,0.7-31.1,4.8-47.4,26.2c-14.2,18.8-12.9,40.4-12.3,50.2
	c1.6,26.6,14.9,44.9,21.1,53.3c6.7,9.2,7.5,7.1,28.3,27.7c0.4,0.4,2,2,2.5,1.7c1-0.7-5.4-10.1-9.1-19.7c-5-12.7-4.5-23.8-4.3-30.2
	c0.8-20.2,8.7-34.6,12-40.5c10.5-18.7,24.3-28.6,37.4-37.9c22.8-16.3,41.8-20.5,44.7-22.6c0.2-0.1,1-0.8,1.5-0.5
	c0.7,0.3,0.6,1.8,0.6,2.2c-0.2,4.3,6.2,11,5.6,15.6c-0.5,4.2-6.3,4.4-15.6,10.3c-4.7,2.9-10.6,9-22.5,21.1
	c-6.5,6.7-9.8,10-11.7,12.6c-2.6,3.5-9.2,12.7-11.7,25.2c-0.4,2.1-4.8,25.6,9,43.1c15.4,19.6,48,24.9,48.5,24.9l0,0
	c0.3,0,0.8-3,0.8-3.3c0.3-2,5.4-16.1,22-29.1c1.9-1.5,10.6-8.2,24.1-13.2c14.5-5.4,26.6-6,31-6.2c5.4-0.1,14.8,1.7,33.7,5.5
	c0.5,0.1,2.5,0.5,2.4,0.9c0,0.3-1.1,0.4-2.1,0.8c-2,0.6-3.1,1.7-4.3,2.8c-4.3,3.8-6.3,4.3-12.2,10c-4,3.9-8.3,8-12.5,14.6
	c-1.8,2.8-4.7,7.5-6.8,14.2c-2.1,6.8-0.6,7-2.3,11.6c-4.2,11.5-16.4,17.7-17.2,18.1c-5.7,2.8-9.5,2.7-10.2,5.6c-0.8,3,2.8,5.2,5,9
	c4.3,7.4,0.1,14.4-6.2,39.4c-3.7,14.6-4.1,19.4-4.2,23.1c-0.3,13.4,3.2,20.5,6.8,24.8c1.1,1.4,1.9,2.1,1.9,2.1
	c1.3,1.2,2,1.5,1.9,1.7c-0.2,0.8-5.8,0.5-8.5,0.2c-18.7-2.1-33.5-13.5-33.5-13.5c-20.3-15.7-25.4-38.2-26.8-44.3
	c-2.9-12.8-2.4-28.2-1.3-30.4c0.1-0.2,0.6-1.1,0.2-1.6c-0.5-0.7-2.3-0.1-2.6,0c-3.2,0.9-24.2-1.6-38.4-5
	c-51.6-12.6-81.6-39.2-81.6-39.2c-17.3-15.3-26.7-30.5-33.9-42.2c-7-11.4-20.7-36.4-27.6-71.3c-7.4-37.5-3.1-67.4-1.7-75.9
	c3.4-20.5,7.1-23.2,12.5-53.5c4.5-25.3,6.8-37.9,5.1-52.5c-3.7-31.7-20.4-53.5-25.8-60.3c-13.9-17.7-29.5-27.6-40.7-34.6
	C218.5,258.9,199.3,256.8,199.9,250.6L199.9,250.6z"/>
</svg>
