<?xml version="1.0" encoding="UTF-8"?><svg id="Layer_2" xmlns="http://www.w3.org/2000/svg" viewBox="0 0 600.27 601.82"><defs><style>.cls-1{fill:#201a58;}</style></defs><g id="Layer_1-2"><path class="cls-1" d="M.01,51.52c.67-7.44,28.69-10.56,42.65-12.12,12.63-1.41,33.57-3.56,59.49,2.47,12.31,2.86,21.64,6.62,29.18,9.65,13.36,5.38,24.52,11.25,37.26,17.96,9.43,4.96,13.41,7.33,23.57,12.35,0,0,20.91,10.32,28.73,9.65,.2-.02,1.83-.17,1.97,.28,.14,.46-1.43,1.13-3.24,2.59-1.16,.94-1.51,1.47-3.35,3.55-2.05,2.32-2.62,2.8-4.6,4.95-37.98,41.28-50.56,65.49-50.56,65.49-1.53,2.95-2.46,4.93-4.24,8.71-17.34,36.85-15.96,50-15.18,54.71,.67,4.07,2.33,10.57,3.8,10.5,1.53-.08,2.28-7.36,2.46-8.93,1.92-16.84,14.35-38.24,24.56-55.83,7.17-12.35,22.13-35.94,46.89-60.74,23.57-23.61,45.02-37.29,62.75-48.46,27.72-17.46,50.51-27.37,64.76-33.5,23.57-10.13,56.3-23.96,100.93-31.04C481.47-1.58,501.75,.1,509.03,.85c28.5,2.93,46.02,10.9,53.59,14.74,12.69,6.43,22.72,11.67,29.92,23.22,9.75,15.64,7.86,32.5,6.92,40.86-2.27,20.21-11.24,33.49-27.24,57.17-14.51,21.46-21.76,32.2-34.17,41.98-17.24,13.6-37.96,21.96-36.62,33.72,.15,1.31,.51,2.12,1.12,3.57,1.48,3.53,11.32,27.24,14.74,46.67,3.05,17.35,.5,28.51-.45,32.16-2,7.71-3,11.57-6.03,14.29-17.98,16.15-89.02-22.5-85.3-42.2,.21-1.11,.36-.59,1.79-4.02,5.47-13.14,6.86-29.3,7.15-32.6,.05-.62,.14-1.67,.67-2.9,2.01-4.64,7.91-6.13,10.5-6.92,6.9-2.11,12.27-7.59,18.53-11.17,5.93-3.38,17.56-11.17,40.86-33.5,20.19-19.35,34.58-33.14,50.91-54.71,16.45-21.74,38.12-55.65,32.83-60.29-.99-.87-2.65-.46-3.57-.22-17.99,4.51-25.98,6.03-30.1,6.7-.64,.11-2.41,.28-4.77,.83-2.1,.49-3.56,1-5.97,1.83-6.06,2.09-6.82,2.31-7.84,2.69-4.8,1.74-19.72,8.29-39.3,18.53-20.09,10.36-34.82,21.83-44.66,30.59-16.39,14.6-30.47,27.46-35.73,48.08-1.77,6.95-2.11,13.11-2.59,21.82-1.1,19.96,1.9,26.67,1.5,40.67-.5,17.28-5.73,30.09-9.57,39.47-5.23,12.8-13.74,23.86-30.75,45.98,0,0-8.92,11.6-32.01,27.95-1.6,1.13-5.04,3.43-8.12,2.33-1.77-.63-2.71-2.14-3.13-2.79-8.46-13.37-8.72-11.04-11.6-17.74-9.68-22.58-9.95-43.5-9.95-43.5-.11-8.37-.12-32.26,13.88-54.61,18.95-30.25,51.92-39.09,50.21-42.81-1.17-2.54-16.63,1.28-28.92,7.17-4.24,2.03-20.38,10.19-33.78,28.46-5.23,7.12-15.46,21.07-17.12,40.49-1.51,17.69,5.29,25.77-.93,34.01-2.16,2.87-6.34,6.35-25.43,8.65-25.24,3.05-30.95-1.47-46.22,.57-5.1,.68-31.15,4.75-47.36,26.25-14.18,18.81-12.87,40.38-12.27,50.21,1.63,26.63,14.93,44.88,21.11,53.35,6.67,9.15,7.53,7.11,28.33,27.7,.41,.4,2.02,2,2.48,1.68,1.04-.72-5.37-10.07-9.13-19.68-4.95-12.67-4.52-23.84-4.28-30.24,.77-20.15,8.66-34.59,11.98-40.51,10.5-18.72,24.34-28.62,37.37-37.94,22.82-16.33,41.83-20.46,44.69-22.61,.17-.13,.98-.77,1.53-.5,.68,.32,.57,1.82,.56,2.19-.17,4.35,6.16,11.02,5.65,15.64-.46,4.18-6.28,4.4-15.62,10.26-4.66,2.93-10.59,8.99-22.46,21.12-6.52,6.66-9.78,10-11.68,12.58-2.56,3.48-9.19,12.69-11.68,25.16-.43,2.13-4.77,25.61,8.99,43.13,15.39,19.6,48.05,24.86,48.51,24.93h0c.28,.02,.75-3.05,.79-3.27,.33-2.05,5.39-16.09,22.01-29.1,1.86-1.45,10.6-8.17,24.11-13.24,14.48-5.43,26.61-6.04,30.97-6.15,5.41-.13,14.85,1.74,33.74,5.47,.5,.1,2.45,.49,2.43,.91-.01,.31-1.07,.42-2.13,.75-1.95,.61-3.09,1.72-4.34,2.83-4.3,3.79-6.28,4.32-12.17,9.99-4.05,3.9-8.31,8-12.51,14.59-1.79,2.81-4.73,7.5-6.77,14.24-2.07,6.85-.57,7.05-2.26,11.64-4.21,11.47-16.36,17.65-17.2,18.06-5.65,2.79-9.45,2.72-10.25,5.56-.84,2.98,2.77,5.17,5.04,9.03,4.32,7.36,.07,14.43-6.25,39.43-3.68,14.56-4.08,19.42-4.17,23.1-.32,13.41,3.22,20.52,6.77,24.84,1.14,1.39,1.91,2.08,1.91,2.08,1.28,1.19,1.96,1.45,1.91,1.74-.15,.8-5.78,.48-8.51,.17-18.72-2.12-33.52-13.55-33.52-13.55-20.32-15.69-25.39-38.24-26.75-44.29-2.88-12.83-2.39-28.17-1.28-30.36,.08-.16,.6-1.11,.24-1.6-.5-.67-2.34-.08-2.61,0-3.17,.92-24.19-1.56-38.39-5.04-51.56-12.62-81.63-39.25-81.63-39.25-17.27-15.29-26.73-30.52-33.87-42.21-6.99-11.44-20.74-36.38-27.62-71.29-7.4-37.5-3.09-67.36-1.69-75.89,3.35-20.5,7.1-23.17,12.54-53.53,4.52-25.28,6.78-37.92,5.08-52.51-3.7-31.72-20.38-53.47-25.75-60.31-13.9-17.68-29.54-27.62-40.66-34.56C18.62,59.87-.55,57.73,.01,51.52Z"/></g></svg>