<?xml version="1.0" encoding="UTF-8"?><svg id="Layer_2" xmlns="http://www.w3.org/2000/svg" viewBox="220 295 520 400"><defs><style>.cls-1{fill:#fff;}</style></defs><g id="Layer_1-2"><rect class="cls-1" width="1000" height="1000"/><g><path d="M373.97,322.4c-66.22,47.64-85.24,117.15-88.44,142.29-.11,.85,.55,1.59,1.41,1.59l425.74,.24c.87,0,1.55-.78,1.41-1.65-7.96-49.13-30.02-97.79-88.71-142.53-1.08-.82-.49-2.54,.86-2.54h91.67c1.64,0,3.21,.71,4.29,1.95,85.18,98.57,82.04,257.42-1.5,356.47-1.08,1.28-2.67,2-4.34,2l-92.35-.12c-1.39,0-1.95-1.8-.8-2.58,33.4-22.75,80-71.6,90.72-143.45,.13-.86-.54-1.63-1.41-1.63l-425.3,.14c-.87,0-1.54,.78-1.41,1.64,9.22,57.91,42.18,108.83,90.82,143.26,1.13,.8,.56,2.57-.82,2.57l-92.31-.06c-1.7,0-3.33-.76-4.4-2.08-77.53-95.49-91.79-239.6-1.62-355.93,1.07-1.38,2.74-2.19,4.49-2.19l91.18,.06c1.37,0,1.94,1.76,.83,2.56h-.01Z"/><path d="M372.08,319.16c-34.12,24.74-60.53,58.42-76.72,97.3-5.33,12.81-9.64,26.14-12.24,39.78-.94,4.93-3.35,12.83,3.83,13.79,.54,.07,1.14,0,1.68,0,33.57,.6,67.21,.04,100.78,.06l173.99,.1,133.07,.08h13.49c.82,0,1.71,.1,2.53,0,7.63-.88,4.85-8.99,3.86-14.08-8.25-42.65-28.98-80.92-59.69-111.62-4.55-4.55-9.27-8.92-14.13-13.12-2.32-2-4.67-3.97-7.04-5.9-1.46-1.19-2.94-2.36-4.42-3.52l-1.51-1.17c-.93-1.06-1.24-.69-.93,1.12l-2.24,1.72c1.89-.62,6.24-.15,8.7-.15h70.32c3.77,0,8.35-.72,12.07,0,3.5,.68,6.35,5.91,8.49,8.61,3.95,4.98,7.68,10.14,11.2,15.43,14.16,21.21,24.93,44.55,32.21,68.98,14.45,48.53,15.3,100.92,3.21,150.05-6.06,24.62-15.34,48.4-27.85,70.46-6.3,11.1-13.38,21.79-21.26,31.82-2,2.55-4.35,7.01-7.71,7.57-1.37,.23-2.97,0-4.35,0l-85.13-.11c-.7,0-1.94-.09-2.15-.16l2.24,1.72-.49,2.31c.53-.36,1.05-.73,1.57-1.1,.82-.35,1.67-1.19,2.39-1.71,1.37-1,2.72-2.01,4.06-3.04,3.25-2.49,6.43-5.07,9.53-7.74,6.63-5.71,12.92-11.82,18.84-18.26,13.68-14.91,25.51-31.62,34.71-49.65,4.99-9.78,9.27-19.97,12.69-30.41,1.66-5.06,3.12-10.19,4.38-15.37,1.37-5.63,3.91-13.03,3.63-18.87s-5.09-5.38-9.07-5.38l-106.21,.03-171.41,.06-128.75,.04h-12.64c-.74,0-1.54-.09-2.27,0-8.38,1.05-4.32,11.59-3.17,16.97,9.22,43.44,32.36,83.26,64.59,113.68,4.13,3.89,8.4,7.63,12.8,11.21,1.86,1.51,3.74,2.99,5.64,4.45,1.24,.95,2.48,1.89,3.74,2.82l1.26,.92c1.38,1.51,1.79,1.17,1.25-1.02l2.24-1.72c-1.75,.58-5.75,.15-8.05,.15h-20.44l-48.32-.04c-4.57,0-9.31,.37-13.86,0-2.17-.18-2.99-.65-4.61-2.67-4.01-5.02-7.83-10.19-11.48-15.49-14.02-20.35-25.43-42.51-33.7-65.8-17.05-48.02-20.86-100.38-10.23-150.26,5.66-26.57,15.22-52.2,28.18-76.06,6.78-12.48,14.45-24.47,22.88-35.9,1.89-2.57,3.66-6,6.94-6.52,1.58-.25,3.43,0,5.02,0l82.84,.05c.7,0,1.99,.09,2.17,.16l-2.24-1.72-.03-1.51,5.89-.76h-.01c-3.42-3.43-8.72,1.88-5.3,5.29h.01c1.84,1.85,4.5,1.18,5.89-.75,2.77-3.84-.27-7.81-4.42-8.2-1.94-.18-3.99,0-5.94,0l-25.99-.02-56.04-.04c-1.68,0-3.49-.13-5.14,.28-3.56,.89-5.45,3.75-7.54,6.51-3.09,4.08-6.09,8.24-8.99,12.46-10.35,15.09-19.36,31.11-26.79,47.83-13.77,30.99-22.11,64.18-24.28,98.04-4.16,64.94,14.87,130.61,52.42,183.67,2.23,3.15,4.52,6.24,6.87,9.3s4.47,6.82,7.8,8.55c2.05,1.06,4.22,1.06,6.44,1.06h21.53l60.19,.05c4.29,0,13.02,1.54,13.58-4.73,.3-3.36-2.58-4.93-4.93-6.65-3.73-2.72-7.37-5.55-10.93-8.5-6.53-5.42-12.76-11.19-18.65-17.3-24-24.91-41.98-55.42-51.5-88.72-1.12-3.92-2.13-7.87-3.02-11.84-.69-3.06-3-8.94-2.13-11.98l-1.72,2.24c-1.04,.48-.86-.19-.07,.01,.63,.16,1.53,0,2.17,0h39.35l101.51-.05,122.84-.04,106.24-.03h35.15l10.85-.02c1.69,0,4.06,.44,5.71,0,.77-.2,.98,.46-.07-.02l-1.72-2.24c.57,1.96-.69,5.36-1.08,7.39-.51,2.69-1.09,5.37-1.71,8.04-1.34,5.72-2.93,11.38-4.76,16.95-3.23,9.84-7.22,19.4-11.93,28.61-8.64,16.91-19.53,32.64-32.26,46.73-10.16,11.25-21.43,21.62-33.79,30.43-2.49,1.77-5.88,3.43-5.55,7.01,.26,2.88,2.51,4.45,5.23,4.75,2.15,.23,4.46,0,6.62,0l71.36,.09c5.68,0,15.56,1.75,20.34-2.23,3.38-2.81,6.01-7.06,8.67-10.54,3.04-3.97,5.98-8.02,8.79-12.16,5.48-8.06,10.51-16.42,15.07-25.04,35.89-67.79,43.42-150.31,20.38-223.48-5.71-18.12-13.3-35.69-22.73-52.18-4.84-8.46-10.17-16.63-15.98-24.46-2.61-3.52-5.31-6.98-8.1-10.37-3.02-3.66-5.58-7.15-10.66-7.45-6.3-.38-12.74,0-19.05,0h-38.62c-10.2,0-20.39,0-30.59,0-2.34,0-5.03-.35-6.92,1.38-2.77,2.54-1.58,5.97,.75,8.15,5.15,4.8,11.15,8.85,16.44,13.54,30.72,27.27,53.97,61.41,64.99,101.17,1.17,4.22,2.21,8.48,3.14,12.77,.64,2.99,2.93,8.99,2.08,11.96l1.72-2.24c1.02-.47,.85,.19,.02-.01-.62-.15-1.48,0-2.12,0h-8.51l-31.08-.02-101.53-.06-122.78-.07-106.58-.06-34.87-.02h-11.05c-1.68,0-4.06-.45-5.7,0-.75,.2-1.02-.46,.08,.04l1.72,2.24c-.65-2.11,.74-6.01,1.19-8.27,.7-3.46,1.52-6.9,2.42-10.31,2.32-8.74,5.23-17.32,8.63-25.7,9.05-22.3,21.82-43.27,37.6-61.44,10.85-12.51,23.12-23.72,36.52-33.44,3.87-2.81,.13-9.32-3.79-6.48Z"/></g></g></svg>