<?xml version="1.0" encoding="utf-8"?>
<!-- Generator: Adobe Illustrator 26.3.1, SVG Export Plug-In . SVG Version: 6.00 Build 0)  -->
<svg version="1.1" id="Lager_2" xmlns="http://www.w3.org/2000/svg" xmlns:xlink="http://www.w3.org/1999/xlink" x="0px" y="0px"
	 viewBox="0 0 569.7 360.7" style="enable-background:new 0 0 569.7 360.7;" xml:space="preserve">
<style type="text/css">
	.st0{stroke:#4765AD;stroke-width:0.25;stroke-miterlimit:10;}
</style>
<path class="st0" d="M158.8,2.7C92.6,50.4,73.6,119.8,70.4,144.9c-0.1,0.9,0.6,1.6,1.4,1.6l425.7,0.2c0.9,0,1.5-0.8,1.4-1.6
	c-8-49.1-30-97.8-88.7-142.5c-1.1-0.8-0.5-2.5,0.9-2.5h91.7c1.6,0,3.2,0.7,4.3,2c85.2,98.6,82,257.4-1.5,356.5c-1.1,1.3-2.7,2-4.3,2
	l-92.4-0.1c-1.4,0-2-1.8-0.8-2.6c33.4-22.8,80-71.6,90.7-143.4c0.1-0.9-0.5-1.6-1.4-1.6l-425.3,0.1c-0.9,0-1.5,0.8-1.4,1.6
	c9.2,57.9,42.2,108.8,90.8,143.3c1.1,0.8,0.6,2.6-0.8,2.6l-92.3-0.1c-1.7,0-3.3-0.8-4.4-2.1c-77.6-95.6-91.8-239.8-1.7-356.1
	C63.4,0.8,65,0,66.8,0L158,0.1C159.4,0.2,160,2,158.8,2.7L158.8,2.7L158.8,2.7z"/>
</svg>
