<?xml version="1.0" encoding="UTF-8"?>
<!DOCTYPE svg PUBLIC "-//W3C//DTD SVG 1.1//EN" "http://www.w3.org/Graphics/SVG/1.1/DTD/svg11.dtd">
<svg xmlns="http://www.w3.org/2000/svg" version="1.1" width="1024px" height="1024px" style="shape-rendering:geometricPrecision; text-rendering:geometricPrecision; image-rendering:optimizeQuality; fill-rule:evenodd; clip-rule:evenodd" xmlns:xlink="http://www.w3.org/1999/xlink">
<g><path style="opacity:0.883" fill="#226cb4" d="M -0.5,519.5 C -0.5,514.167 -0.5,508.833 -0.5,503.5C 1.36941,499.434 3.53607,495.434 6,491.5C 153.5,344 301,196.5 448.5,49C 488.581,18.2721 532.581,11.2721 580.5,28C 594.461,33.6485 607.128,41.3151 618.5,51C 672.333,104.833 726.167,158.667 780,212.5C 788.98,224.707 789.647,237.374 782,250.5C 695.68,337.653 609.18,424.653 522.5,511.5C 609.18,598.347 695.68,685.347 782,772.5C 789.647,785.626 788.98,798.293 780,810.5C 726.5,864 673,917.5 619.5,971C 578.023,1004.79 532.023,1012.45 481.5,994C 470.05,988.861 459.383,982.528 449.5,975C 301.387,826.887 153.221,678.721 5,530.5C 2.6738,526.983 0.840466,523.317 -0.5,519.5 Z M 521.5,80.5 C 541.994,78.3706 560.328,83.5373 576.5,96C 622.167,141.667 667.833,187.333 713.5,233C 627,319.5 540.5,406 454,492.5C 445.333,505.167 445.333,517.833 454,530.5C 540.5,617 627,703.5 713.5,790C 667.833,835.667 622.167,881.333 576.5,927C 551.095,945.322 524.428,947.322 496.5,933C 492.656,930.578 488.99,927.911 485.5,925C 348.347,787.014 211.014,649.18 73.5,511.5C 210.68,374.153 347.68,236.653 484.5,99C 495.289,89.6057 507.622,83.439 521.5,80.5 Z"/></g>
<g><path style="opacity:0.884" fill="#e32526" d="M 1023.5,495.5 C 1023.5,506.167 1023.5,516.833 1023.5,527.5C 1019.99,552.858 1010.16,575.524 994,595.5C 957.139,632.028 920.639,668.861 884.5,706C 871.856,716.054 858.523,717.054 844.5,709C 785,649.5 725.5,590 666,530.5C 657.333,517.833 657.333,505.167 666,492.5C 725.5,433 785,373.5 844.5,314C 858.523,305.946 871.856,306.946 884.5,317C 920.639,354.139 957.139,390.972 994,427.5C 1010.16,447.476 1019.99,470.142 1023.5,495.5 Z M 861.5,382.5 C 891.443,410.61 920.61,439.61 949,469.5C 962.312,488.398 965.978,509.065 960,531.5C 957.388,539.391 953.721,546.724 949,553.5C 920.695,582.805 892.028,611.805 863,640.5C 819.986,597.653 777.153,554.653 734.5,511.5C 775.486,470.014 816.653,428.68 858,387.5C 858.997,385.677 860.164,384.01 861.5,382.5 Z"/></g>
</svg>
